<?xml version="1.0" encoding="utf-8"?>
<!-- Generator: Adobe Illustrator 17.0.0, SVG Export Plug-In . SVG Version: 6.00 Build 0)  -->
<!DOCTYPE svg PUBLIC "-//W3C//DTD SVG 1.1//EN" "http://www.w3.org/Graphics/SVG/1.1/DTD/svg11.dtd">
<svg version="1.1" id="Capa_1" xmlns="http://www.w3.org/2000/svg" xmlns:xlink="http://www.w3.org/1999/xlink" x="0px" y="0px"
	 width="110px" height="110px" viewBox="0 0 110 110" enable-background="new 0 0 110 110" xml:space="preserve">
<g>
	<path fill="#49B6CF" d="M76.133,28.586c1.049-0.005,1.899,0.827,1.886,1.856c-0.008,1.001-0.817,1.83-1.808,1.856
		c-1.064,0.028-1.886-0.758-1.906-1.82C74.288,29.402,75.069,28.593,76.133,28.586"/>
	<path fill="#49B6CF" d="M83.356,102.631H26.459c-0.417-0.437-1.006-0.796-1.213-1.315c-0.475-1.186,0.46-2.379,1.795-2.397
		c2.222-0.02,4.447-0.005,6.831-0.005c0-1.519-0.094-2.95,0.02-4.353c0.225-2.761,2.366-4.995,5.119-5.319
		c1.408-0.164,2.841-0.114,4.265-0.129c2.215-0.015,2.222-0.003,2.824-2.156c0.597-2.134,1.183-4.272,1.815-6.548h-1.772
		c-10.006,0-20.017,0.01-30.022-0.003c-4.801-0.01-8.588-3.446-8.598-7.928c-0.038-14.756-0.035-29.514,0-44.27
		c0.01-4.03,3.395-7.622,7.417-7.801c3.714-0.162,7.435-0.051,11.151-0.116c0.42-0.005,0.918-0.27,1.241-0.569
		c1.042-0.966,1.984-2.045,3.034-3.006c2.551-2.333,6.221-2.311,8.759,0.028c0.887,0.822,1.694,1.724,2.591,2.533
		c0.2,0.185,0.66,0.253,0.925,0.159c1.158-0.425,2.273-0.968,3.433-1.388c0.501-0.182,0.66-0.427,0.647-0.94
		c-0.028-1.176-0.025-2.356,0.008-3.532c0.071-2.892,2.055-5.463,4.904-5.979c1.684-0.308,3.453-0.217,5.18-0.212
		c3.4,0.005,6.186,2.773,6.277,6.186c0.033,1.206-0.023,2.419,0.04,3.625c0.018,0.276,0.286,0.657,0.541,0.776
		c1.143,0.536,2.316,1.021,3.501,1.459c0.263,0.096,0.726,0.03,0.925-0.149c0.9-0.809,1.711-1.706,2.599-2.533
		c2.533-2.341,6.199-2.366,8.757-0.038c1.006,0.913,1.987,1.873,2.874,2.902c0.488,0.569,0.981,0.715,1.674,0.713
		c3.597-0.01,7.195-0.101,10.779,0.058c4.421,0.197,7.713,3.772,7.72,8.191c0.01,14.508,0.005,29.021-0.008,43.527
		c-0.003,0.733-0.101,1.494-0.291,2.199c-1.014,3.782-4.217,6.105-8.406,6.105c-10.195,0.01-20.386,0.003-30.584,0.003h-1.307
		c0.604,2.184,1.17,4.234,1.737,6.277c0.19,0.685,0.339,1.385,0.597,2.048c0.078,0.19,0.47,0.354,0.72,0.359
		c1.459,0.035,2.915,0.015,4.371,0.015c4.128,0.005,6.656,2.52,6.687,6.654c0.008,1.019,0,2.03,0,3.152h1.09
		c1.893,0,3.782-0.015,5.67,0.005c1.176,0.013,1.916,0.822,1.886,1.949C84.643,101.773,84.051,102.236,83.356,102.631
		 M80.123,63.927c0.071-0.073,0.147-0.149,0.217-0.225c-0.404-0.556-0.751-1.16-1.218-1.658c-1.062-1.122-2.197-2.184-3.281-3.289
		c-0.852-0.875-0.854-1.562-0.341-2.69c0.837-1.85,1.638-3.729,2.343-5.635c0.516-1.39,0.92-1.797,2.407-1.808
		c1.577-0.01,3.157,0.033,4.74-0.01c1.805-0.051,3.173-1.074,3.117-2.915c-0.028-0.93-0.053-1.868,0.008-2.791
		c0.139-2.07-1.226-3.216-3.183-3.206c-1.608,0.003-3.221,0.01-4.831-0.008c-1.229-0.015-1.744-0.501-2.179-1.626
		c-0.763-1.987-1.585-3.949-2.447-5.895c-0.495-1.115-0.46-1.813,0.397-2.682c1.153-1.17,2.331-2.318,3.479-3.491
		c1.261-1.284,1.259-2.814,0.008-4.111c-0.69-0.718-1.395-1.408-2.103-2.108c-1.403-1.388-2.91-1.398-4.31-0.01
		c-1.145,1.135-2.273,2.283-3.42,3.413c-0.89,0.875-1.535,0.885-2.677,0.374c-1.939-0.867-3.913-1.668-5.895-2.432
		c-1.074-0.415-1.562-0.956-1.57-2.124c-0.008-1.641,0.005-3.286-0.003-4.927c-0.008-1.83-1.11-2.95-2.945-2.986
		c-0.991-0.015-1.982-0.01-2.973,0c-1.893,0.02-3.011,1.125-3.018,3.001c-0.01,1.643,0.005,3.286-0.005,4.932
		c-0.01,1.153-0.506,1.691-1.588,2.106c-1.982,0.763-3.951,1.565-5.893,2.432c-1.138,0.511-1.78,0.496-2.672-0.387
		c-1.17-1.153-2.318-2.328-3.486-3.479c-1.304-1.272-2.824-1.279-4.113-0.033c-0.756,0.738-1.502,1.479-2.235,2.235
		c-1.246,1.294-1.236,2.821,0.033,4.118c1.148,1.173,2.331,2.316,3.481,3.486c0.847,0.865,0.865,1.583,0.369,2.69
		c-0.847,1.883-1.656,3.792-2.379,5.723c-0.488,1.302-0.973,1.775-2.351,1.785c-1.61,0.01-3.223-0.015-4.834,0.005
		c-1.782,0.02-2.811,1.042-2.859,2.831c-0.033,1.019-0.025,2.043-0.003,3.069c0.04,1.992,1.077,2.998,3.082,3.016
		c1.547,0.013,3.097-0.008,4.649,0.005c1.388,0.01,1.81,0.422,2.293,1.694c0.743,1.959,1.567,3.893,2.424,5.804
		c0.473,1.059,0.442,1.795-0.362,2.614c-1.153,1.17-2.346,2.305-3.471,3.501c-0.415,0.44-0.693,1.019-1.135,1.689H80.123z
		 M11.225,67.818c0,1.266,0.061,2.442-0.013,3.607c-0.187,3.041,1.926,5.243,5.2,5.238c25.743-0.076,51.485-0.043,77.228-0.046
		c0.308,0,0.619,0.005,0.93-0.008c1.904-0.076,3.782-1.502,4.004-3.39c0.21-1.757,0.045-3.562,0.045-5.402H11.225z M84.059,24.106
		c-0.088,2.419-1.423,4.09-3.066,5.584c-0.437,0.397-0.882,0.794-1.231,1.264c-0.169,0.228-0.24,0.667-0.142,0.935
		c0.422,1.16,0.887,2.308,1.416,3.425c0.126,0.271,0.549,0.536,0.852,0.556c1.049,0.071,2.108,0.01,3.16,0.033
		c3.734,0.078,6.348,2.263,6.757,5.832c0.182,1.59,0.172,3.238,0,4.826c-0.344,3.092-2.351,5.177-5.395,5.642
		c-1.398,0.215-2.839,0.169-4.262,0.152c-0.68-0.005-1.031,0.144-1.246,0.86c-0.303,1.001-0.72,1.979-1.206,2.907
		c-0.341,0.65-0.207,1.019,0.283,1.504c1.823,1.787,3.946,3.398,4.022,6.287h14.779v-1.143V41.188c0-4.121,0.01-8.246-0.008-12.367
		c-0.013-2.52-1.714-4.631-3.971-4.689C91.271,24.038,87.74,24.106,84.059,24.106 M25.761,24.199
		c-0.162-0.061-0.22-0.094-0.276-0.094c-3.072-0.005-6.143,0.096-9.204-0.048c-2.93-0.134-5.096,1.992-5.079,5.079
		c0.061,11.255,0.023,22.514,0.023,33.766v0.945c0.185,0.066,0.24,0.099,0.298,0.099c4.555,0.008,9.108,0.023,13.664-0.01
		c0.238,0,0.632-0.362,0.672-0.607c0.255-1.497,0.956-2.73,2.027-3.777c0.713-0.695,1.388-1.418,2.111-2.098
		c0.367-0.344,0.45-0.624,0.22-1.117c-0.516-1.087-0.971-2.209-1.378-3.347c-0.179-0.498-0.437-0.64-0.94-0.627
		c-1.148,0.035-2.293,0.035-3.443,0.003c-3.109-0.078-5.756-2.298-6.163-5.39c-0.23-1.737-0.276-3.544-0.081-5.281
		c0.389-3.468,3.001-5.698,6.505-5.789c1.082-0.033,2.169-0.033,3.254,0.005c0.485,0.013,0.698-0.174,0.86-0.619
		c0.384-1.042,0.751-2.103,1.267-3.079c0.367-0.698,0.222-1.074-0.296-1.577C27.92,28.808,25.804,27.109,25.761,24.199
		 M37.605,98.856h34.631v-3.011c-0.008-2.192-0.756-2.935-2.97-2.935H40.552c-0.308,0-0.617-0.01-0.928,0.023
		c-1.052,0.099-1.954,0.93-2.007,1.984C37.557,96.207,37.605,97.506,37.605,98.856 M49.418,89.055h10.875
		c0-0.174,0.028-0.306-0.003-0.417c-0.71-2.561-1.413-5.122-2.164-7.667c-0.073-0.243-0.493-0.528-0.758-0.536
		c-1.608-0.051-3.221,0-4.831-0.038c-0.579-0.015-0.811,0.207-0.943,0.741c-0.316,1.259-0.675,2.503-1.016,3.757
		C50.202,86.254,49.82,87.614,49.418,89.055"/>
	<path fill="#49B6CF" d="M55.084,61.005c-8.795,0.03-16.01-6.479-16.935-15.13c-0.963-9.033,5.39-17.152,14.43-18.427
		c0.518-0.073,1.047-0.154,1.567-0.147c0.981,0.015,1.752,0.791,1.83,1.759c0.073,0.923-0.657,1.765-1.633,1.942
		c-1.218,0.22-2.46,0.362-3.63,0.731c-4.957,1.555-9.546,6.732-8.843,14c0.546,5.577,5.223,10.463,11.025,11.356
		c5.296,0.819,10.458-1.588,13.242-6.168c2.715-4.477,2.477-10.178-0.599-14.447c-0.109-0.152-0.22-0.301-0.324-0.458
		c-0.68-1.019-0.556-2.058,0.329-2.715c0.87-0.647,2.02-0.538,2.659,0.513c1.026,1.679,2.124,3.385,2.733,5.23
		c3.304,10.029-3.575,20.664-14.046,21.87C56.244,60.985,55.592,60.98,55.084,61.005"/>
</g>
</svg>
