<?xml version="1.0" encoding="utf-8"?>
<!-- Generator: Adobe Illustrator 17.0.0, SVG Export Plug-In . SVG Version: 6.00 Build 0)  -->
<!DOCTYPE svg PUBLIC "-//W3C//DTD SVG 1.1//EN" "http://www.w3.org/Graphics/SVG/1.1/DTD/svg11.dtd">
<svg version="1.1" id="Capa_1" xmlns="http://www.w3.org/2000/svg" xmlns:xlink="http://www.w3.org/1999/xlink" x="0px" y="0px"
	 width="24px" height="24px" viewBox="0 0 24 24" enable-background="new 0 0 24 24" xml:space="preserve">
<g>
	<path fill="#1C2A52" d="M22.054,12.336c0,1.646,0.007,3.292-0.002,4.937c-0.007,1.324-0.32,2.535-1.316,3.497
		c-0.932,0.9-2.083,1.194-3.319,1.201c-3.367,0.019-6.734,0.021-10.101,0.001c-1.793-0.01-3.277-0.633-4.154-2.313
		c-0.372-0.713-0.493-1.489-0.495-2.279C2.657,13.984,2.64,10.587,2.67,7.19c0.025-2.827,1.721-4.544,4.561-4.579
		c3.412-0.043,6.825-0.03,10.237-0.003c2.128,0.017,3.641,1.02,4.275,2.744c0.243,0.66,0.31,1.35,0.311,2.047
		C22.055,9.045,22.054,10.69,22.054,12.336z"/>
	<path fill="#FEFEFE" d="M12.891,11.216c0.801-1.05,1.761-1.499,2.956-1.331c1.601,0.226,2.515,1.356,2.55,3.17
		c0.032,1.646,0.001,3.293,0.014,4.939c0.002,0.296-0.115,0.353-0.375,0.346c-0.604-0.014-1.209-0.021-1.812,0.002
		c-0.317,0.012-0.412-0.087-0.408-0.406c0.017-1.329,0.008-2.658,0.005-3.988c-0.001-0.241,0.002-0.487-0.04-0.723
		c-0.096-0.539-0.341-0.986-0.927-1.102c-0.61-0.121-1.14,0.042-1.519,0.566C13.086,13.033,13,13.427,13,13.844
		c0,1.359-0.014,2.719,0.008,4.078c0.006,0.351-0.102,0.436-0.434,0.421c-0.588-0.026-1.178-0.018-1.767-0.002
		c-0.259,0.007-0.375-0.044-0.374-0.342c0.011-2.523,0.01-5.045,0.001-7.568c-0.001-0.254,0.068-0.341,0.329-0.333
		c0.589,0.018,1.179,0.024,1.767-0.002c0.316-0.014,0.39,0.111,0.364,0.391C12.876,10.694,12.891,10.903,12.891,11.216z"/>
	<path fill="#FDFEFE" d="M8.893,14.235c0,1.239-0.008,2.477,0.006,3.716c0.003,0.291-0.069,0.402-0.376,0.392
		c-0.634-0.021-1.269-0.014-1.903-0.002c-0.237,0.004-0.314-0.078-0.314-0.314c0.006-2.537,0.006-5.075,0-7.612
		c-0.001-0.233,0.066-0.319,0.307-0.314c0.634,0.013,1.269,0.019,1.903-0.002c0.295-0.01,0.388,0.075,0.384,0.377
		C8.884,11.728,8.893,12.982,8.893,14.235z"/>
	<path fill="#FEFEFE" d="M7.591,8.959c-0.85,0.003-1.485-0.598-1.496-1.415C6.085,6.706,6.73,6.057,7.575,6.055
		C8.421,6.053,9.088,6.706,9.08,7.528C9.072,8.342,8.434,8.955,7.591,8.959z"/>
</g>
</svg>
