<?xml version="1.0" encoding="utf-8"?>
<!-- Generator: Adobe Illustrator 17.0.0, SVG Export Plug-In . SVG Version: 6.00 Build 0)  -->
<!DOCTYPE svg PUBLIC "-//W3C//DTD SVG 1.1//EN" "http://www.w3.org/Graphics/SVG/1.1/DTD/svg11.dtd">
<svg version="1.1" id="Capa_1" xmlns="http://www.w3.org/2000/svg" xmlns:xlink="http://www.w3.org/1999/xlink" x="0px" y="0px"
	 width="24px" height="52px" viewBox="0 -14 24 52" enable-background="new 0 -14 24 52" xml:space="preserve">
<path fill="#00B2C9" d="M16.08-11.668H9.539l-5.394,5.1V3.595c0,2.001,1.481,3.737,3.482,3.737h8.453
	c2.001,0,4.066-1.736,4.066-3.737V-8.48C20.146-10.48,18.081-11.668,16.08-11.668z"/>
<polygon fill="#7AE2F0" points="9.5,-6.559 4.145,-6.542 9.524,-11.635 "/>
<g>
	<path fill="#FFFFFF" d="M6.146-1.082c1-0.102,1.104-0.152,1.523-0.152c0.646,0,1.251,0.154,1.569,0.464
		c0.319,0.309,0.54,0.789,0.54,1.441c0,0.628-0.127,1.103-0.446,1.424C9.014,2.416,8.403,2.576,7.765,2.576
		c-0.103,0,0.38-0.007-0.62-0.021v1.778h-1L6.146-1.082L6.146-1.082z M8.788,1.558c0.179-0.184,0.268-0.478,0.268-0.88
		c0-0.407-0.087-0.704-0.262-0.893C8.62-0.403,8.202-0.496,7.836-0.496c-0.188,0-0.69,0.017-0.69,0.051v2.243
		c0,0.024,0.45,0.036,0.644,0.036C8.178,1.834,8.61,1.742,8.788,1.558z"/>
	<path fill="#FFFFFF" d="M10.146,4.176v-5.239c0-0.051,0.531-0.092,0.765-0.122s0.515-0.046,0.732-0.046
		c0.791,0,1.413,0.226,1.81,0.677s0.61,1.142,0.61,2.073c0,0.637-0.086,1.157-0.273,1.562c-0.188,0.403-0.465,0.701-0.84,0.893
		s-0.959,0.287-1.531,0.287C11.035,4.26,11.146,4.232,10.146,4.176z M12.585,3.266c0.223-0.133,0.389-0.342,0.5-0.628
		c0.11-0.285,0.166-0.66,0.166-1.123c0-0.458-0.056-0.831-0.166-1.118c-0.111-0.287-0.276-0.498-0.497-0.633
		c-0.22-0.135-0.515-0.202-0.855-0.202c-0.172,0-0.587,0.021-0.587,0.063v3.807c0,0.021,0.356,0.033,0.571,0.033
		C12.063,3.464,12.362,3.397,12.585,3.266z"/>
	<path fill="#FFFFFF" d="M17.605,0h-2v1.292h2v1h-2v2.041h-1V-1h3V0z"/>
</g>
<path fill="#FFFFFF" d="M16.08,17.499H9.539l-5.394,5.1v10.163c0,2.001,1.481,3.737,3.482,3.737h8.453
	c2.001,0,4.066-1.736,4.066-3.737V20.687C20.146,18.687,18.081,17.499,16.08,17.499z"/>
<polygon fill="#7AE2F0" points="9.5,22.608 4.145,22.624 9.524,17.532 "/>
<g>
	<path fill="#00B2C9" d="M6.146,28.085c1-0.102,1.104-0.152,1.523-0.152c0.646,0,1.251,0.154,1.569,0.464
		c0.319,0.309,0.54,0.789,0.54,1.441c0,0.628-0.127,1.103-0.446,1.424c-0.318,0.321-0.929,0.481-1.567,0.481
		c-0.103,0,0.38-0.007-0.62-0.021V33.5h-1L6.146,28.085L6.146,28.085z M8.788,30.725c0.179-0.184,0.268-0.478,0.268-0.88
		c0-0.407-0.087-0.704-0.262-0.893c-0.174-0.188-0.592-0.281-0.958-0.281c-0.188,0-0.69,0.017-0.69,0.051v2.243
		c0,0.024,0.45,0.036,0.644,0.036C8.178,31.001,8.61,30.909,8.788,30.725z"/>
	<path fill="#00B2C9" d="M10.146,33.343v-5.239c0-0.051,0.531-0.092,0.765-0.122c0.234-0.03,0.515-0.046,0.732-0.046
		c0.791,0,1.413,0.226,1.81,0.677s0.61,1.142,0.61,2.073c0,0.637-0.086,1.157-0.273,1.562c-0.188,0.403-0.465,0.701-0.84,0.893
		c-0.375,0.192-0.959,0.287-1.531,0.287C11.035,33.427,11.146,33.399,10.146,33.343z M12.585,32.433
		c0.223-0.133,0.389-0.342,0.5-0.628c0.11-0.285,0.166-0.66,0.166-1.123c0-0.458-0.056-0.831-0.166-1.118
		c-0.111-0.287-0.276-0.498-0.497-0.633c-0.22-0.135-0.515-0.202-0.855-0.202c-0.172,0-0.587,0.021-0.587,0.063v3.807
		c0,0.021,0.356,0.033,0.571,0.033C12.063,32.631,12.362,32.564,12.585,32.433z"/>
	<path fill="#00B2C9" d="M17.605,29.167h-2v1.292h2v1h-2v2.041h-1v-5.332h3V29.167z"/>
</g>
</svg>
