<?xml version="1.0" encoding="utf-8"?>
<!-- Generator: Adobe Illustrator 17.0.0, SVG Export Plug-In . SVG Version: 6.00 Build 0)  -->
<!DOCTYPE svg PUBLIC "-//W3C//DTD SVG 1.1//EN" "http://www.w3.org/Graphics/SVG/1.1/DTD/svg11.dtd">
<svg version="1.1" id="Capa_1" xmlns="http://www.w3.org/2000/svg" xmlns:xlink="http://www.w3.org/1999/xlink" x="0px" y="0px"
	 width="110px" height="110px" viewBox="0 0 110 110" enable-background="new 0 0 110 110" xml:space="preserve">
<g>
	<path fill="#49B6CF" d="M76.079,52.214c1.031,0.999,2.015,2.035,3.107,2.937c0.281,0.233,0.938,0.147,1.37,0.025
		c6.459-1.765,13.325,1.886,15.373,8.213c0.786,2.427,0.791,4.874,0.096,7.319c-0.43,1.502-1.406,1.739-2.528,0.624
		c-0.94-0.93-1.878-1.871-2.804-2.816c-0.549-0.566-1.138-0.852-1.967-0.662c-1.183,0.273-2.386,0.453-3.62,0.678
		c-0.271,1.312-0.574,2.599-0.779,3.896c-0.048,0.291,0.157,0.708,0.377,0.938c1.074,1.13,2.204,2.212,3.297,3.329
		c1.079,1.105,0.847,2.015-0.609,2.475c-7.667,2.422-15.921-3.527-15.952-11.561c-0.003-1.37,0.364-2.743,0.506-4.113
		c0.038-0.354-0.005-0.829-0.215-1.067c-0.897-1.016-1.868-1.967-2.758-2.887c-2.063,2.063-4.042,4.05-6.044,6.062
		c3.099,1.939,5.63,4.533,7.48,7.789c7.49,13.199-0.746,29.937-15.765,32.017c-11.578,1.605-22.183-5.999-24.266-17.567
		c-0.399-2.202-0.088-4.523-0.174-6.783c-0.018-0.473-0.222-1.057-0.549-1.388c-4.846-4.902-9.725-9.771-14.594-14.65
		c-2.134-2.134-2.121-4.116,0.02-6.259c1.441-1.446,2.882-2.887,4.32-4.328c2.199-2.194,3.984-2.27,6.358-0.2
		c1.636-1.84,2.672-3.989,3.064-6.393c0.243-1.494,0.288-3.041,0.265-4.561c-0.038-2.629,0.804-4.813,2.73-6.646
		c2.389-2.268,4.677-4.634,7.04-6.987c-0.445-0.799-0.905-1.057-1.876-0.784c-9.313,2.627-17.888-5.794-15.469-15.138
		c0.182-0.693,0.319-1.567,1.16-1.59c0.538-0.015,1.176,0.404,1.618,0.799c1.011,0.9,1.891,1.952,2.907,2.849
		c0.344,0.303,0.95,0.478,1.413,0.437c1.009-0.081,2.015-0.291,2.993-0.551c0.334-0.088,0.589-0.493,0.875-0.763
		c0.038-0.035,0.02-0.131,0.03-0.197c0.207-1.163,0.827-2.462,0.506-3.458c-0.334-1.042-1.565-1.8-2.412-2.675
		c-0.397-0.417-0.819-0.811-1.221-1.231c-0.988-1.026-0.736-2.005,0.627-2.432c5.653-1.777,12.013,0.973,14.698,6.371
		c1.454,2.925,1.711,5.976,0.809,9.103c-0.182,0.629-0.131,1.026,0.356,1.504c2.67,2.616,5.291,5.276,7.935,7.915
		c0.136,0.139,0.293,0.26,0.589,0.526c1.221-1.267,2.369-2.556,3.625-3.736c2.72-2.556,6.972-1.38,7.951,2.169
		c0.129,0.483,0.149,1.001,0.23,1.585c1.734,0.185,3.236,0.867,4.148,2.475c0.89,1.572,0.842,3.173-0.02,4.821
		c2.927,1.294,4.108,3.433,3.195,6.649c1.661,0.506,2.915,1.514,3.486,3.206C77.585,49.177,77.181,50.699,76.079,52.214
		 M38.492,66.833c0.088-0.061,0.233-0.152,0.367-0.245c6.532-4.543,13.52-5.423,20.939-2.543c0.624,0.245,0.918,0.015,1.297-0.364
		c4.217-4.237,8.446-8.464,12.668-12.696c0.144-0.142,0.291-0.286,0.425-0.435c0.622-0.713,0.723-1.539,0.417-2.384
		c-0.296-0.832-0.983-1.449-1.825-1.39c-0.741,0.048-1.595,0.379-2.146,0.87c-1.522,1.352-2.907,2.854-4.351,4.29
		c-0.561,0.559-1.211,0.68-1.805,0.121c-0.64-0.602-0.513-1.274,0.071-1.876c0.258-0.268,0.528-0.531,0.791-0.794
		c1.775-1.777,3.567-3.542,5.319-5.344c0.839-0.86,0.943-1.83,0.41-2.791c-0.483-0.872-1.385-1.347-2.407-1.095
		c-0.523,0.129-1.059,0.468-1.451,0.847c-1.974,1.919-3.88,3.901-5.87,5.802c-0.331,0.321-0.956,0.495-1.421,0.452
		c-0.306-0.03-0.804-0.579-0.796-0.88c0.013-0.473,0.273-1.042,0.617-1.388c2.609-2.672,5.271-5.294,7.9-7.951
		c1.138-1.153,1.17-2.538,0.139-3.514c-0.966-0.913-2.318-0.814-3.428,0.286c-2.553,2.538-5.091,5.089-7.637,7.635
		c-0.24,0.243-0.48,0.624-0.753,0.657c-0.511,0.061-1.201,0.091-1.524-0.195c-0.273-0.243-0.22-0.966-0.147-1.449
		c0.048-0.281,0.415-0.521,0.652-0.758c2.515-2.523,5.038-5.048,7.559-7.571c0.24-0.238,0.488-0.475,0.693-0.743
		c0.731-0.961,0.632-2.24-0.217-3.054c-0.817-0.786-2.048-0.865-2.978-0.169c-0.296,0.225-0.554,0.498-0.817,0.763
		c-3.534,3.527-7.04,7.081-10.595,10.585c-2.826,2.793-6.156,3.534-9.917,2.24c-1.38-0.475-1.828-1.047-1.552-1.858
		c0.301-0.885,0.938-1.016,2.389-0.485c2.715,0.994,5.67,0.27,7.258-1.633c-2.088-2.096-4.164-4.181-6.279-6.305
		c-1.926,1.931-3.838,4.065-5.979,5.941c-2.164,1.904-3.145,4.083-2.922,6.985c0.121,1.527-0.185,3.109-0.48,4.631
		c-0.516,2.644-1.845,4.925-3.471,6.939C31.26,59.598,34.829,63.17,38.492,66.833 M51.64,64.876
		C40.752,64.97,32.413,73.54,32.493,84.554c0.078,10.352,8.873,18.705,19.587,18.601c10.243-0.094,18.697-8.823,18.659-19.253
		C70.696,73.451,62,64.785,51.64,64.876 M32.45,7.061c0.981,0.935,1.924,1.704,2.695,2.622c0.361,0.427,0.609,1.163,0.531,1.706
		c-0.238,1.742-0.652,3.461-1.001,5.187c-0.154,0.781-0.576,1.226-1.411,1.358c-1.772,0.281-3.532,0.619-5.296,0.956
		c-0.731,0.136-1.32-0.018-1.83-0.586c-0.738-0.817-1.519-1.6-2.278-2.397c-0.104,0.048-0.202,0.096-0.301,0.142
		c0,0.389-0.013,0.781,0.005,1.168c0.278,6.575,6.649,11.217,12.88,9.172c1.749-0.576,2.809-0.329,3.832,1.014
		c0.268,0.346,0.622,0.627,0.93,0.938c2.48,2.505,4.967,5.003,7.389,7.45c1.31-1.31,2.551-2.548,3.954-3.951
		c-0.25-0.182-0.586-0.367-0.849-0.627c-2.72-2.707-5.402-5.448-8.15-8.125c-0.857-0.834-1.138-1.578-0.647-2.761
		c0.943-2.285,0.862-4.644,0.002-6.955C41.314,9.096,36.758,6.27,32.45,7.061 M74.534,54.019c-1.335,1.342-2.568,2.589-3.85,3.88
		c1.042,1.024,2.116,2.156,3.274,3.198c0.852,0.769,0.999,1.481,0.574,2.594c-2.164,5.696,1.178,11.887,7.119,13.264
		c0.978,0.23,2.012,0.222,3.021,0.324c0.046-0.121,0.091-0.243,0.134-0.367c-0.852-0.819-1.754-1.595-2.528-2.48
		c-0.336-0.384-0.645-1.029-0.574-1.499c0.273-1.808,0.723-3.585,1.057-5.38c0.149-0.817,0.556-1.254,1.373-1.388
		c1.835-0.298,3.668-0.617,5.501-0.963c0.774-0.142,1.385,0.043,1.901,0.645c0.715,0.832,1.459,1.643,2.187,2.46
		c0.106-0.094,0.215-0.185,0.319-0.281c0.073-3.681-1.062-6.762-4.308-8.909c-3.092-2.035-6.315-2.467-9.756-1.102
		c-0.766,0.303-1.358,0.18-1.924-0.407C76.882,56.387,75.682,55.189,74.534,54.019 M36.442,68.625
		c-0.099-0.159-0.134-0.258-0.205-0.329c-4.169-4.176-8.332-8.36-12.514-12.526c-0.779-0.779-1.375-0.746-2.194,0.058
		c-1.593,1.57-3.168,3.157-4.745,4.745c-1.112,1.117-1.107,1.572,0.03,2.705c4.505,4.515,9.012,9.025,13.517,13.537
		c0.205,0.197,0.425,0.377,0.688,0.604C32.165,74.002,33.972,71.095,36.442,68.625"/>
</g>
</svg>
