<?xml version="1.0" encoding="utf-8"?>
<!-- Generator: Adobe Illustrator 17.0.0, SVG Export Plug-In . SVG Version: 6.00 Build 0)  -->
<!DOCTYPE svg PUBLIC "-//W3C//DTD SVG 1.1//EN" "http://www.w3.org/Graphics/SVG/1.1/DTD/svg11.dtd">
<svg version="1.1" id="Capa_1" xmlns="http://www.w3.org/2000/svg" xmlns:xlink="http://www.w3.org/1999/xlink" x="0px" y="0px"
	 width="110px" height="110px" viewBox="0 0 110 110" enable-background="new 0 0 110 110" xml:space="preserve">
<g>
	<path fill="#49B6CF" d="M93.839,57.718c-0.2,1.393-0.364,2.793-0.612,4.181c-1.519,8.416-5.382,15.608-11.664,21.382
		c-5.739,5.276-12.471,8.724-20.226,9.993c-4.571,0.743-9.139,0.688-13.694-0.162c-1.077-0.202-1.666-0.857-1.59-1.689
		c0.094-0.963,0.935-1.489,1.967-1.38c2.528,0.27,5.069,0.718,7.589,0.655c9.771-0.23,18.068-3.949,24.994-10.863
		c5.041-5.038,8.188-11.065,9.508-18.012c1.972-10.418-0.326-19.908-6.585-28.442c-0.076-0.104-0.164-0.19-0.275-0.321
		c-1.868,0.875-3.779,1.019-5.698,0.217c-1.37-0.569-2.412-1.545-3.12-2.854c-1.421-2.639-0.776-5.943,1.534-7.89
		c2.306-1.939,5.779-1.987,8.188-0.114c1.987,1.545,3.514,4.871,1.489,8.38c1.363,2.26,2.796,4.401,3.989,6.669
		c2.333,4.439,3.65,9.204,4.062,14.212c0.023,0.248,0.096,0.49,0.144,0.733V57.718z M83.404,27.423c0-1.853-1.454-3.256-3.365-3.241
		c-1.734,0.018-3.256,1.534-3.248,3.248c0.015,1.706,1.557,3.294,3.259,3.243C82.137,30.61,83.389,29.222,83.404,27.423"/>
	<path fill="#49B6CF" d="M57.649,16.207c1.395,0.2,2.786,0.399,4.174,0.607c0.253,0.035,0.498,0.088,0.743,0.149
		c0.938,0.222,1.454,0.971,1.266,1.83c-0.177,0.801-0.961,1.294-1.855,1.163c-0.999-0.147-1.99-0.321-2.991-0.45
		c-5.056-0.647-10.031-0.174-14.852,1.423c-10.163,3.37-17.504,9.968-21.908,19.736c-2.386,5.289-3.329,10.86-2.927,16.662
		c0.483,7.03,2.829,13.36,6.997,19.028c0.106,0.142,0.212,0.278,0.326,0.42c0.03,0.035,0.071,0.063,0.159,0.131
		c1.785-0.854,3.643-0.999,5.514-0.207c1.395,0.586,2.447,1.577,3.152,2.922c1.38,2.637,0.723,5.908-1.565,7.827
		c-2.328,1.954-5.703,1.987-8.092,0.063c-2.086-1.676-3.377-5.01-1.418-8.358c-1.284-2.086-2.654-4.057-3.764-6.168
		c-3.509-6.654-4.925-13.757-4.308-21.268C17.547,36.57,27.647,23.444,41.97,18.398c3.102-1.092,6.29-1.808,9.571-2.053
		c0.225-0.015,0.442-0.091,0.657-0.139H57.649z M33.102,82.579c0.01-1.818-1.489-3.327-3.299-3.327
		c-1.808,0-3.332,1.517-3.319,3.319c0.008,1.767,1.502,3.274,3.271,3.302C31.547,85.903,33.092,84.384,33.102,82.579"/>
	<path fill="#49B6CF" d="M66.98,75.911c-1.866,0.733-3.562,1.426-5.283,2.055c-0.43,0.157-0.533,0.356-0.526,0.753
		c0.018,0.761,0.025,1.519-0.008,2.278c-0.04,1.029-0.599,1.562-1.638,1.562c-3.079,0.01-6.156,0.01-9.235,0
		c-0.991-0.002-1.557-0.538-1.603-1.522c-0.035-0.779-0.023-1.565-0.01-2.346c0.008-0.369-0.076-0.564-0.48-0.713
		c-1.744-0.642-3.466-1.342-5.397-2.101c-0.458,0.485-1.049,1.14-1.671,1.76c-0.885,0.885-1.666,0.885-2.551,0.008
		c-2.106-2.103-4.214-4.212-6.315-6.325c-0.872-0.88-0.857-1.648,0.03-2.551c0.478-0.485,0.943-0.981,1.449-1.438
		c0.316-0.283,0.329-0.506,0.154-0.902c-0.685-1.534-1.34-3.092-1.939-4.667c-0.159-0.407-0.329-0.549-0.746-0.538
		c-0.781,0.023-1.565,0.025-2.346-0.008c-0.94-0.043-1.489-0.612-1.492-1.552c-0.01-3.127-0.01-6.257,0-9.394
		c0.005-0.895,0.538-1.476,1.438-1.532c0.781-0.048,1.565-0.035,2.346-0.015c0.427,0.01,0.632-0.096,0.806-0.559
		c0.579-1.555,1.226-3.084,1.909-4.596c0.192-0.425,0.18-0.66-0.159-0.966c-0.541-0.49-1.052-1.021-1.555-1.552
		c-0.705-0.751-0.72-1.55,0-2.275c2.179-2.21,4.376-4.409,6.58-6.588c0.726-0.713,1.527-0.688,2.28,0.025
		c0.528,0.503,1.052,1.016,1.547,1.557c0.278,0.301,0.495,0.351,0.905,0.169c1.557-0.69,3.155-1.304,4.72-1.992
		c0.207-0.091,0.445-0.394,0.458-0.614c0.061-0.776,0.005-1.565,0.035-2.343c0.04-1.031,0.602-1.565,1.638-1.567
		c3.079-0.01,6.158-0.01,9.235,0c0.996,0.003,1.56,0.536,1.605,1.522c0.035,0.781,0.028,1.565,0.008,2.346
		c-0.01,0.392,0.134,0.549,0.506,0.698c1.593,0.617,3.17,1.274,4.73,1.962c0.377,0.172,0.581,0.131,0.842-0.152
		c0.503-0.531,1.024-1.044,1.555-1.555c0.776-0.746,1.577-0.779,2.328-0.035c2.192,2.164,4.366,4.343,6.532,6.532
		c0.753,0.761,0.743,1.557,0.005,2.336c-0.498,0.533-1.014,1.059-1.55,1.55c-0.313,0.283-0.336,0.506-0.157,0.902
		c0.685,1.54,1.335,3.094,1.934,4.669c0.159,0.422,0.354,0.536,0.758,0.526c0.781-0.02,1.562-0.023,2.346,0.002
		c1.09,0.043,1.628,0.584,1.628,1.653c0.01,3.056,0.01,6.11,0.005,9.164c-0.005,1.095-0.523,1.638-1.608,1.674
		c-0.832,0.028-1.663-0.013-2.495,0.038c-0.205,0.013-0.498,0.22-0.574,0.407c-0.71,1.747-1.38,3.506-2.144,5.466
		c0.473,0.445,1.107,1.016,1.716,1.615c0.93,0.923,0.938,1.699,0.035,2.606c-2.101,2.111-4.209,4.217-6.318,6.317
		c-0.852,0.849-1.636,0.842-2.495,0c-0.602-0.579-1.186-1.17-1.777-1.754C66.942,75.873,66.886,75.863,66.98,75.911 M58.117,79.496
		c0-0.736-0.003-1.413,0-2.088c0.002-1.317,0.341-1.777,1.605-2.073c2.255-0.526,4.348-1.416,6.315-2.629
		c0.963-0.597,1.539-0.533,2.348,0.288c0.528,0.533,0.999,1.115,1.433,1.605c1.641-1.631,3.117-3.107,4.725-4.705
		c-0.544-0.49-1.14-0.996-1.691-1.545c-0.7-0.69-0.779-1.34-0.258-2.174c1.259-2.025,2.161-4.199,2.723-6.52
		c0.27-1.143,0.733-1.476,1.929-1.481c0.72-0.003,1.441,0,2.149,0v-6.383c-0.741,0-1.421,0.003-2.101,0
		c-1.244-0.01-1.727-0.369-2.015-1.593c-0.528-2.25-1.413-4.353-2.624-6.32c-0.591-0.963-0.536-1.575,0.263-2.356
		c0.536-0.523,1.12-0.988,1.615-1.423c-1.633-1.661-3.097-3.145-4.689-4.77c-0.498,0.554-0.983,1.138-1.512,1.671
		c-0.748,0.758-1.375,0.827-2.298,0.25c-2.002-1.256-4.156-2.124-6.449-2.685c-1.085-0.265-1.461-0.741-1.466-1.868
		c-0.005-0.723-0.002-1.451-0.002-2.204h-6.383c0,0.771,0.008,1.497,0,2.222c-0.013,1.082-0.389,1.593-1.413,1.843
		c-2.341,0.569-4.543,1.461-6.59,2.743c-0.824,0.516-1.492,0.432-2.172-0.265c-0.544-0.551-1.034-1.153-1.532-1.719
		c-1.631,1.643-3.102,3.127-4.598,4.631c-0.005-0.033-0.01-0.005,0.005,0.01c0.526,0.544,1.057,1.082,1.577,1.631
		c0.67,0.713,0.761,1.37,0.248,2.189c-1.264,2.022-2.159,4.199-2.723,6.515c-0.273,1.127-0.758,1.484-1.931,1.497
		c-0.718,0.005-1.441,0.003-2.144,0.003v6.34c0.109,0.02,0.157,0.038,0.202,0.038c0.657,0.002,1.315,0.002,1.969,0.005
		c1.168,0.008,1.636,0.356,1.914,1.509c0.549,2.295,1.446,4.444,2.685,6.456c0.549,0.885,0.48,1.512-0.253,2.232
		c-0.551,0.538-1.155,1.029-1.724,1.524c1.651,1.646,3.137,3.117,4.631,4.596c0,0,0.058-0.003,0.091-0.035
		c0.521-0.513,1.034-1.034,1.565-1.545c0.726-0.698,1.342-0.789,2.174-0.271c2.045,1.279,4.242,2.187,6.588,2.743
		c1.049,0.253,1.418,0.758,1.431,1.83c0.01,0.748,0,1.499,0,2.28H58.117z"/>
	<path fill="#49B6CF" d="M42.561,89.613c-0.013,0.849-0.705,1.512-1.56,1.489c-0.809-0.028-1.481-0.7-1.489-1.504
		c-0.005-0.801,0.733-1.547,1.54-1.545C41.878,88.053,42.574,88.776,42.561,89.613"/>
	<path fill="#49B6CF" d="M54.943,42.447c6.866,0.015,12.521,5.683,12.521,12.544c0,6.889-5.731,12.597-12.597,12.546
		c-6.874-0.051-12.516-5.736-12.481-12.584C42.422,48.076,48.092,42.429,54.943,42.447 M54.933,45.531
		c-5.241-0.005-9.475,4.229-9.465,9.467c0.008,5.218,4.194,9.419,9.412,9.452c5.23,0.035,9.478-4.181,9.503-9.432
		C64.403,49.783,60.176,45.538,54.933,45.531"/>
</g>
</svg>
