<?xml version="1.0" encoding="utf-8"?>
<!-- Generator: Adobe Illustrator 17.0.0, SVG Export Plug-In . SVG Version: 6.00 Build 0)  -->
<!DOCTYPE svg PUBLIC "-//W3C//DTD SVG 1.1//EN" "http://www.w3.org/Graphics/SVG/1.1/DTD/svg11.dtd">
<svg version="1.1" id="Capa_1" xmlns="http://www.w3.org/2000/svg" xmlns:xlink="http://www.w3.org/1999/xlink" x="0px" y="0px"
	 width="24px" height="24px" viewBox="0 0 24 24" enable-background="new 0 0 24 24" xml:space="preserve">
<g>
	<path fill="#00B2C9" d="M21.699,12.051c0,1.646,0.007,3.292-0.002,4.937c-0.007,1.324-0.32,2.535-1.316,3.497
		c-0.932,0.9-2.083,1.194-3.319,1.201c-3.367,0.019-6.734,0.021-10.101,0.001c-1.793-0.01-3.277-0.633-4.154-2.313
		c-0.372-0.713-0.493-1.489-0.495-2.279c-0.01-3.397-0.027-6.795,0.003-10.192C2.34,4.078,4.036,2.361,6.876,2.326
		c3.412-0.043,6.825-0.03,10.237-0.003c2.128,0.017,3.641,1.02,4.275,2.744c0.243,0.66,0.31,1.35,0.311,2.047
		C21.7,8.76,21.699,10.405,21.699,12.051z"/>
	<path fill="#FEFEFE" d="M12.536,10.931c0.801-1.05,1.761-1.499,2.956-1.331c1.601,0.226,2.515,1.356,2.55,3.17
		c0.032,1.646,0.001,3.293,0.014,4.939c0.002,0.296-0.115,0.353-0.375,0.346c-0.604-0.014-1.209-0.021-1.812,0.002
		c-0.317,0.012-0.412-0.087-0.408-0.406c0.017-1.329,0.008-2.658,0.005-3.988c-0.001-0.241,0.002-0.487-0.04-0.723
		c-0.096-0.539-0.341-0.986-0.927-1.102c-0.61-0.121-1.14,0.042-1.519,0.566c-0.248,0.343-0.335,0.737-0.335,1.154
		c0,1.359-0.014,2.719,0.008,4.078c0.006,0.351-0.102,0.436-0.434,0.421c-0.588-0.026-1.178-0.018-1.767-0.002
		c-0.259,0.007-0.375-0.044-0.374-0.342c0.011-2.523,0.01-5.045,0.001-7.568c-0.001-0.254,0.068-0.341,0.329-0.333
		c0.589,0.018,1.179,0.024,1.767-0.002c0.316-0.014,0.39,0.111,0.364,0.391C12.521,10.409,12.536,10.618,12.536,10.931z"/>
	<path fill="#FDFEFE" d="M8.539,13.95c0,1.239-0.008,2.477,0.006,3.716c0.003,0.291-0.069,0.402-0.376,0.392
		c-0.634-0.021-1.269-0.014-1.903-0.002c-0.237,0.004-0.314-0.078-0.314-0.314c0.006-2.537,0.006-5.075,0-7.612
		C5.952,9.896,6.018,9.81,6.259,9.815c0.634,0.013,1.269,0.019,1.903-0.002c0.295-0.01,0.388,0.075,0.384,0.377
		C8.529,11.443,8.539,12.697,8.539,13.95z"/>
	<path fill="#FEFEFE" d="M7.237,8.674c-0.85,0.003-1.485-0.598-1.496-1.415C5.731,6.421,6.376,5.772,7.221,5.77
		c0.845-0.002,1.513,0.652,1.504,1.473C8.717,8.057,8.079,8.67,7.237,8.674z"/>
</g>
</svg>
