<?xml version="1.0" encoding="utf-8"?>
<!-- Generator: Adobe Illustrator 17.0.0, SVG Export Plug-In . SVG Version: 6.00 Build 0)  -->
<!DOCTYPE svg PUBLIC "-//W3C//DTD SVG 1.1//EN" "http://www.w3.org/Graphics/SVG/1.1/DTD/svg11.dtd">
<svg version="1.1" id="Capa_1" xmlns="http://www.w3.org/2000/svg" xmlns:xlink="http://www.w3.org/1999/xlink" x="0px" y="0px"
	 width="24px" height="24px" viewBox="0 0 24 24" enable-background="new 0 0 24 24" xml:space="preserve">
<g>
	<path fill="#1C2A52" d="M22.054,11.836c0,1.646,0.007,3.292-0.002,4.937c-0.007,1.324-0.32,2.535-1.316,3.497
		c-0.932,0.9-2.083,1.194-3.319,1.201c-3.367,0.019-6.734,0.021-10.101,0.001c-1.793-0.01-3.277-0.633-4.154-2.313
		c-0.372-0.713-0.493-1.489-0.495-2.279C2.657,13.484,2.64,10.087,2.67,6.69c0.025-2.827,1.721-4.544,4.561-4.579
		c3.412-0.043,6.825-0.03,10.237-0.003c2.128,0.017,3.641,1.02,4.275,2.744c0.243,0.66,0.31,1.35,0.311,2.047
		C22.055,8.545,22.054,10.19,22.054,11.836z"/>
	<polyline fill="none" stroke="#FEFEFE" stroke-miterlimit="10" points="20.237,6.083 12.146,14.174 4.632,6.661 	"/>
</g>
</svg>
