<?xml version="1.0" encoding="utf-8"?>
<!-- Generator: Adobe Illustrator 17.0.0, SVG Export Plug-In . SVG Version: 6.00 Build 0)  -->
<!DOCTYPE svg PUBLIC "-//W3C//DTD SVG 1.1//EN" "http://www.w3.org/Graphics/SVG/1.1/DTD/svg11.dtd">
<svg version="1.1" id="Capa_1" xmlns="http://www.w3.org/2000/svg" xmlns:xlink="http://www.w3.org/1999/xlink" x="0px" y="0px"
	 width="110px" height="110px" viewBox="0 0 110 110" enable-background="new 0 0 110 110" xml:space="preserve">
<g>
	<path fill="#49B6CF" d="M11.899,56.766c0.698-1.792,2.055-2.384,3.908-2.343c3.051,0.071,6.105,0.018,9.154,0.02
		c2.402,0.005,3.57,1.158,3.572,3.532v2.51c2.215,0.569,4.313,1.004,6.34,1.663c1.312,0.432,2.52,1.181,3.767,1.81
		c0.748,0.377,1.489,0.771,2.209,1.201c2.541,1.519,5.326,2.015,8.241,2.212c4.634,0.311,9.26,0.72,13.879,1.186
		c3.587,0.364,6.34,3.231,6.712,6.869c0.071,0.675,0.301,0.935,0.961,0.935c0.784,0,1.567,0.094,2.349,0.073
		c0.303-0.005,0.637-0.169,0.903-0.346c3.077-2.043,6.138-4.105,9.217-6.146c2.141-1.416,4.341-2.75,6.444-4.222
		c3.451-2.414,7.645-0.546,8.416,2.925c0.018,0.076,0.086,0.137,0.131,0.207v2.012c-0.465,1.332-1.211,2.452-2.285,3.4
		c-5.349,4.717-10.658,9.477-16,14.202c-1.527,1.352-3.284,2.369-5.309,2.725c-3.163,0.554-6.343,1.014-9.523,1.479
		c-5.251,0.776-10.511,1.519-15.762,2.288c-2.007,0.291-3.987,0.445-5.948-0.329c-3.12-1.226-6.259-2.386-9.397-3.575
		c-1.742-0.662-3.489-1.317-5.251-1.974c-0.045,0.144-0.086,0.217-0.088,0.296c-0.149,2.637-1.125,3.549-3.789,3.549
		c-2.996,0.003-5.996-0.053-8.99,0.023c-1.823,0.048-3.135-0.561-3.86-2.278V56.766z M28.533,63.331v1.967
		c0,0.283,0.008,0.561-0.003,0.839c-0.03,0.847-0.516,1.373-1.256,1.368c-0.748,0-1.246-0.521-1.251-1.375
		c-0.013-2.682-0.03-5.372,0.01-8.054c0.013-0.822-0.293-1.064-1.082-1.057c-3.163,0.03-6.325,0.03-9.49,0
		c-0.811-0.01-1.057,0.281-1.057,1.079c0.02,10.405,0.02,20.813,0,31.216c0,0.812,0.273,1.072,1.077,1.062
		c3.137-0.035,6.272-0.015,9.409-0.015c1.082,0,1.127-0.048,1.127-1.148V72.596c0-0.278-0.096-0.632,0.04-0.822
		c0.281-0.399,0.65-0.94,1.049-0.996c0.392-0.056,0.928,0.339,1.274,0.667c0.187,0.177,0.144,0.629,0.144,0.963
		c0.01,4.361,0.015,8.727-0.003,13.092c-0.005,0.564,0.116,0.877,0.71,1.097c5.076,1.891,10.127,3.853,15.216,5.711
		c0.86,0.316,1.881,0.43,2.791,0.329c2.806-0.311,5.592-0.774,8.385-1.173c5.309-0.771,10.618-1.56,15.931-2.29
		c2.397-0.329,4.654-0.933,6.522-2.566c2.124-1.858,4.265-3.698,6.368-5.574c3.367-2.996,6.714-6.014,10.059-9.035
		c1.246-1.125,1.416-2.629,0.483-3.82c-0.92-1.176-2.419-1.36-3.827-0.442c-2.713,1.765-5.43,3.537-8.133,5.324
		c-2.705,1.792-5.41,3.587-8.085,5.417c-0.695,0.473-1.383,0.64-2.204,0.566c-1.39-0.129-2.796-0.293-4.186-0.248
		c-2.682,0.091-5.364,0.334-8.047,0.49c-5.587,0.336-11.174,0.662-16.763,0.981c-1.517,0.088-2.781-0.49-3.853-1.527
		c-0.703-0.68-0.814-1.436-0.324-1.987c0.546-0.619,1.272-0.589,2.048,0.142c0.672,0.629,1.433,0.93,2.361,0.865
		c1.256-0.094,2.513-0.152,3.769-0.23c5.112-0.316,10.226-0.632,15.335-0.953c1.358-0.083,2.713-0.179,4.055-0.265
		c0.179-2.677-1.888-4.993-4.689-5.253c-4.735-0.44-9.475-0.854-14.217-1.206c-2.558-0.19-5.046-0.561-7.329-1.838
		c-1.413-0.794-2.869-1.504-4.29-2.288C34.128,64.37,31.516,63.46,28.533,63.331"/>
	<path fill="#49B6CF" d="M54.812,14.805c4.196,0,8.395-0.003,12.597,0c1.643,0,2.586,0.743,2.811,2.356
		c0.49,3.519,2.121,6.315,5.139,8.241c0.538,0.349,1.125,0.619,1.696,0.913c1.35,0.703,1.901,1.82,1.749,3.312
		c-0.667,6.53-2.579,12.678-5.832,18.376c-3.946,6.907-9.472,12.175-16.639,15.709c-0.857,0.425-1.598,0.435-2.457,0.013
		c-9.616-4.649-16.073-12.15-19.943-21.991c-1.519-3.863-2.498-7.867-2.95-11.99c-0.164-1.494,0.521-2.589,1.881-3.243
		c1.529-0.733,2.887-1.686,3.994-2.993c1.532-1.808,2.29-3.926,2.599-6.244c0.207-1.54,1.095-2.3,2.675-2.303
		c4.224-0.013,8.451-0.003,12.68-0.003V14.805z M42.038,17.432c-0.086,0.377-0.162,0.645-0.205,0.913
		c-0.72,4.639-3.19,8.034-7.359,10.147c-0.862,0.437-1.006,0.951-0.88,1.782c0.69,4.725,1.949,9.278,4.025,13.583
		c3.701,7.685,9.273,13.553,16.958,17.347c0.273,0.131,0.718,0.152,0.981,0.015c6.709-3.39,11.859-8.413,15.489-14.978
		c2.829-5.122,4.462-10.628,5.205-16.417c0.096-0.731-0.073-1.16-0.801-1.497c-3.183-1.469-5.466-3.855-6.762-7.106
		c-0.493-1.226-0.751-2.551-1.105-3.789H42.038z"/>
	<path fill="#49B6CF" d="M20.112,79.239c2.432,0.056,4.434,2.126,4.353,4.515c-0.078,2.465-2.166,4.452-4.601,4.384
		c-2.419-0.068-4.406-2.154-4.335-4.543C15.607,81.076,17.597,79.183,20.112,79.239 M21.871,83.685
		c0.005-1.057-0.872-1.939-1.919-1.916c-1.021,0.023-1.853,0.872-1.853,1.893c-0.005,1.067,0.875,1.939,1.921,1.916
		C21.04,85.556,21.866,84.712,21.871,83.685"/>
	<path fill="#49B6CF" d="M54.814,19.52c3.021,0,6.047-0.005,9.068,0c1.426,0.003,2.012,0.397,2.495,1.765
		c1.183,3.357,3.231,6.034,6.234,7.958c1.006,0.645,1.464,1.466,1.15,2.685c-0.286,1.11-0.46,2.24-0.708,3.355
		c-0.217,0.956-0.832,1.441-1.555,1.272c-0.763-0.174-1.11-0.794-0.935-1.777c0.159-0.905,0.329-1.815,0.576-2.697
		c0.142-0.506-0.008-0.758-0.41-1.031c-3.069-2.101-5.243-4.912-6.548-8.385c-0.164-0.43-0.377-0.592-0.847-0.587
		c-5.66,0.048-11.313,0.081-16.965,0.088c-0.488,0-0.68,0.19-0.832,0.609c-1.251,3.501-3.405,6.323-6.444,8.461
		c-0.397,0.281-0.531,0.533-0.392,1.036c0.268,0.935,0.447,1.901,0.635,2.859c0.157,0.781-0.185,1.39-0.857,1.59
		c-0.632,0.192-1.36-0.177-1.552-0.925c-0.372-1.431-0.71-2.872-0.948-4.328c-0.149-0.938,0.495-1.547,1.234-2.025
		c2.156-1.403,3.843-3.241,5.038-5.508c0.427-0.811,0.751-1.679,1.077-2.538c0.496-1.33,1.006-1.727,2.417-1.729
		c3.021-0.005,6.047-0.003,9.068-0.003V19.52z"/>
	<path fill="#49B6CF" d="M55.083,58.894c-0.455-0.174-0.865-0.281-1.216-0.48c-6.922-3.868-11.78-9.574-14.923-16.791
		c-0.367-0.837-0.162-1.532,0.518-1.863c0.7-0.341,1.416-0.043,1.813,0.854c1.406,3.188,3.178,6.148,5.455,8.79
		c2.268,2.627,4.909,4.806,7.93,6.515c0.212,0.119,0.612,0.109,0.817-0.013c4.652-2.745,8.325-6.477,11.017-11.141
		c0.824-1.423,1.476-2.94,2.222-4.406c0.43-0.847,1.186-1.125,1.853-0.688c0.629,0.41,0.779,0.986,0.483,1.679
		c-1.567,3.704-3.595,7.126-6.262,10.152c-2.424,2.748-5.243,5.021-8.426,6.843C55.968,58.576,55.515,58.712,55.083,58.894"/>
	<path fill="#49B6CF" d="M54.497,41.796c2.374-3.575,4.657-7.018,6.944-10.461c0.137-0.212,0.268-0.425,0.415-0.629
		c0.566-0.806,1.267-1.021,1.914-0.594c0.66,0.432,0.763,1.153,0.217,1.982c-1.795,2.728-3.605,5.448-5.412,8.17
		c-0.865,1.302-1.719,2.614-2.596,3.906c-0.736,1.085-1.479,1.183-2.422,0.303c-1.613-1.507-3.213-3.031-4.806-4.561
		c-0.695-0.67-0.779-1.433-0.258-1.99c0.554-0.576,1.254-0.544,1.997,0.144c1.127,1.044,2.235,2.113,3.355,3.168
		C54.042,41.424,54.254,41.588,54.497,41.796"/>
</g>
</svg>
