<?xml version="1.0" encoding="utf-8"?>
<!-- Generator: Adobe Illustrator 17.0.0, SVG Export Plug-In . SVG Version: 6.00 Build 0)  -->
<!DOCTYPE svg PUBLIC "-//W3C//DTD SVG 1.1//EN" "http://www.w3.org/Graphics/SVG/1.1/DTD/svg11.dtd">
<svg version="1.1" id="Capa_1" xmlns="http://www.w3.org/2000/svg" xmlns:xlink="http://www.w3.org/1999/xlink" x="0px" y="0px"
	 width="110px" height="110px" viewBox="0 0 110 110" enable-background="new 0 0 110 110" xml:space="preserve">
<g>
	<path fill="#49B6CF" d="M57.146,101.787c-3.663-0.978-7.329-1.936-10.989-2.935c-3.165-0.865-6.328-1.747-9.48-2.662
		c-1.795-0.521-3.484-0.415-5.091,0.584c-0.359,0.222-0.736,0.432-1.125,0.597c-0.963,0.412-1.714,0.842-1.593,2.161
		c0.078,0.862-0.662,1.423-1.588,1.403c-4.022-0.076-8.047-0.172-12.069-0.308c-1.1-0.038-1.623-0.723-1.59-1.921
		c0.134-5.236,0.283-10.473,0.43-15.706c0.096-3.375,0.197-6.755,0.283-10.135c0.04-1.56,0.581-2.075,2.121-2.032
		c3.628,0.101,7.255,0.192,10.88,0.281c1.891,0.041,2.369,0.538,2.313,2.429c-0.02,0.511-0.005,1.026-0.005,1.575
		c1.279-0.458,2.533-0.986,3.832-1.347c4.831-1.34,9.566-0.988,14.028,1.282c2.73,1.388,5.483,2.212,8.562,2.166
		c2.771-0.046,5.544,0.228,8.32,0.217c4.065-0.018,7.169,1.61,9.326,5.147c1.072-0.498,2.139-0.991,3.203-1.492
		c2.917-1.378,5.809-2.801,8.752-4.123c2.932-1.315,5.817-1.239,8.446,0.766c0.713,0.544,1.304,1.279,1.83,2.012
		c0.733,1.026,0.536,1.848-0.541,2.541c-3.203,2.048-6.426,4.062-9.627,6.115c-3.438,2.202-6.858,4.424-10.284,6.636
		c-2.073,1.337-4.166,2.644-6.211,4.02c-2.149,1.454-4.555,2.124-7.066,2.536c-0.23,0.038-0.45,0.129-0.68,0.195H57.146z
		 M29.164,94.536c0.415-0.215,0.786-0.397,1.148-0.604c2.212-1.239,4.523-1.479,6.962-0.781c3.446,0.988,6.894,1.967,10.355,2.895
		c3.314,0.887,6.611,1.921,9.978,2.5c3.276,0.566,6.553-0.015,9.424-1.767c4.027-2.457,7.935-5.112,11.907-7.655
		c2.634-1.691,5.299-3.345,7.94-5.026c1.863-1.186,3.716-2.402,5.587-3.607c-1.267-1.307-3.248-1.641-5.021-0.844
		c-2.354,1.059-4.702,2.136-7.043,3.226c-1.893,0.882-3.782,1.787-5.675,2.685c0.053,0.397,0.114,0.726,0.137,1.057
		c0.126,1.871-0.402,2.427-2.268,2.384c-5.549-0.134-11.093-0.27-16.637-0.417c-0.455-0.013-0.923-0.028-1.36-0.147
		c-0.733-0.202-1.112-0.751-1.085-1.499c0.028-0.743,0.43-1.261,1.181-1.423c0.293-0.063,0.602-0.063,0.908-0.056
		c5.056,0.142,10.115,0.288,15.176,0.427c0.258,0.005,0.513-0.02,0.784-0.038c-0.602-2.968-3.19-5.177-6.14-5.266
		c-2.558-0.078-5.119-0.124-7.678-0.21c-1.734-0.058-3.476-0.106-5.203-0.265c-2.354-0.215-4.381-1.363-6.484-2.323
		c-5.412-2.48-10.734-2.207-15.924,0.736c-0.49,0.281-0.652,0.604-0.667,1.153c-0.081,3.259-0.215,6.515-0.296,9.771
		C29.128,91.098,29.164,92.762,29.164,94.536 M17.414,74.128c-0.212,7.806-0.427,15.603-0.642,23.533h9.076
		c0.215-7.794,0.425-15.595,0.642-23.533H17.414z"/>
	<path fill="#49B6CF" d="M55.821,73.169c-12.39-0.046-22.322-10.061-22.267-22.438c0.063-12.177,10.117-22.112,22.353-22.069
		c12.395,0.043,22.33,10.049,22.259,22.428C78.103,63.274,68.041,73.222,55.821,73.169 M55.831,70.049
		c10.595,0.02,19.203-8.514,19.243-19.084c0.038-10.557-8.542-19.165-19.132-19.2c-10.635-0.028-19.281,8.545-19.291,19.137
		C36.639,61.452,45.231,70.032,55.831,70.049"/>
	<path fill="#49B6CF" d="M54.294,16.996c0-2.278,0.003-4.558-0.003-6.836c0-0.819,0.205-1.519,1.042-1.845
		c0.844-0.326,1.78,0.162,1.997,1.052c0.083,0.351,0.091,0.726,0.094,1.084c0.005,4.409,0.005,8.815,0,13.221
		c0,0.185,0.008,0.369-0.005,0.546c-0.076,1.019-0.705,1.686-1.57,1.681c-0.862-0.008-1.527-0.675-1.54-1.699
		c-0.033-2.402-0.013-4.803-0.013-7.205H54.294z"/>
	<path fill="#49B6CF" d="M68.949,20.894c0,1.062,0.018,2.126-0.005,3.188c-0.028,1.097-0.624,1.787-1.517,1.815
		c-0.918,0.033-1.59-0.695-1.603-1.823c-0.023-2.126-0.023-4.25,0-6.376c0.013-1.122,0.599-1.77,1.522-1.792
		c0.971-0.02,1.567,0.624,1.598,1.797C68.967,18.766,68.949,19.832,68.949,20.894"/>
	<path fill="#49B6CF" d="M42.774,20.84c0-1.062-0.025-2.126,0.005-3.188c0.033-1.117,0.619-1.744,1.56-1.742
		c0.938,0,1.54,0.629,1.552,1.749c0.03,2.156,0.03,4.313,0,6.469c-0.013,1.079-0.665,1.775-1.56,1.772
		c-0.892-0.005-1.519-0.695-1.552-1.782C42.751,23.027,42.774,21.935,42.774,20.84"/>
	<path fill="#49B6CF" d="M49.294,56.37c-0.015-1.337,0.528-2.025,1.416-2.086c0.981-0.073,1.565,0.526,1.676,1.716
		c0.169,1.777,1.512,3.15,3.155,3.231c1.936,0.091,3.388-1.019,3.754-2.869c0.311-1.57-0.695-3.289-2.293-3.805
		c-0.513-0.167-1.074-0.205-1.615-0.253c-3.17-0.286-5.534-2.485-6.052-5.64c-0.463-2.839,1.224-5.837,4.06-6.944
		c0.887-0.344,0.672-0.923,0.703-1.517c0.058-1.087,0.657-1.79,1.552-1.8c0.905-0.015,1.517,0.672,1.572,1.762
		c0.003,0.094,0.015,0.185,0,0.273c-0.096,0.642,0.157,0.935,0.799,1.16c2.563,0.907,3.966,2.809,4.389,5.455
		c0.028,0.149,0.023,0.303,0.028,0.455c0.013,1.057-0.597,1.785-1.512,1.808c-0.887,0.023-1.484-0.597-1.58-1.643
		c-0.2-2.166-1.782-3.514-3.888-3.317c-1.724,0.162-3.061,1.641-3.072,3.395c-0.01,1.747,1.327,3.211,3.031,3.453
		c1.135,0.159,2.341,0.276,3.347,0.758c2.47,1.191,3.731,3.297,3.65,6.037c-0.073,2.654-1.378,4.669-3.832,5.731
		c-0.991,0.427-1.499,0.819-1.408,1.974c0.068,0.9-0.675,1.507-1.497,1.512c-0.779,0.003-1.398-0.554-1.542-1.408
		c-0.035-0.207-0.061-0.43-0.03-0.637c0.106-0.741-0.195-1.092-0.902-1.4C50.745,60.698,49.532,58.698,49.294,56.37"/>
</g>
</svg>
